<svg width="152" height="152" viewBox="0 0 152 152" fill="none" xmlns="http://www.w3.org/2000/svg">
<g id="logo (2) 1">
<g id="Group">
<path id="Vector" d="M79.3347 46.9881C76.452 47.2328 73.2609 47.8072 70.2399 48.6262C64.8469 50.1048 63.3365 50.4558 60.6134 50.8494C58.0818 51.211 56.3586 51.2749 46.3597 51.3387C41.0411 51.3812 36.6587 51.4238 36.648 51.4451C36.5523 51.5302 37.3075 52.4662 37.9458 53.0725C38.701 53.7746 39.7328 54.3277 40.8816 54.6575C41.5198 54.8383 42.1261 54.8489 48.8062 54.8489C57.2521 54.8383 58.8902 54.7426 63.1131 53.9873C65.0065 53.6469 66.3574 53.3172 70.1336 52.296C75.6117 50.8175 78.5475 50.3707 82.3024 50.4665C85.9616 50.5622 88.1315 51.1685 90.5993 52.7747C91.3971 53.2959 92.6842 54.4128 92.6842 54.583C92.6842 54.6256 89.3654 57.9124 85.3233 61.88C77.5689 69.4643 73.4524 73.517 67.0382 79.878C64.9001 81.9948 63.1025 83.7286 63.0493 83.7286C62.9855 83.7286 61.4112 82.1331 59.5497 80.1865C54.9119 75.336 52.3696 72.7831 52.0293 72.6022C51.8697 72.5171 51.54 72.4533 51.3059 72.4533C49.9444 72.4533 49.2104 73.8042 49.8487 75.1339C50.0188 75.5062 51.7633 77.357 56.5075 82.2394L62.9323 88.8451L63.7407 88.0686C64.1874 87.6431 66.6765 85.1859 69.2826 82.6011C71.8887 80.0269 78.1859 73.8361 83.2704 68.8367C88.3655 63.8373 93.599 58.6889 94.9074 57.3912L97.2901 55.0404L97.0029 54.5192C96.5242 53.6363 95.6626 52.5513 94.6521 51.5408C92.4076 49.3176 89.525 47.9136 85.9084 47.286C84.6319 47.0626 83.9192 47.0094 82.1003 46.9775C80.877 46.9669 79.6325 46.9669 79.3347 46.9881Z" fill="#2BA9EF"/>
<path id="Vector_2" d="M85.483 52.764C84.9937 52.8917 84.6533 53.1363 84.3874 53.5725C83.8874 54.3809 84.0044 55.2744 84.7065 55.902C85.4404 56.5615 86.3127 56.6572 87.0466 56.1466C87.6742 55.7211 87.8444 55.3914 87.8444 54.5936C87.8444 53.966 87.8019 53.8277 87.5466 53.4874C87.0679 52.8491 86.2595 52.5726 85.483 52.764Z" fill="#2BA9EF"/>
<path id="Vector_3" d="M31.8402 59.455C31.8402 59.5081 32.021 59.8273 32.2444 60.1783C32.7869 61.008 33.6059 61.7313 34.542 62.1887C35.9248 62.8695 35.9993 62.8801 43.9133 62.8801H51.0507L51.5188 62.6354C52.7208 62.0291 52.6995 60.1783 51.4762 59.5932C51.0295 59.3699 50.9231 59.3699 41.4348 59.3699C36.1588 59.3699 31.8402 59.4124 31.8402 59.455Z" fill="#2BA9EF"/>
<path id="Vector_4" d="M73.5481 60.9121C73.346 61.0078 72.1228 62.1247 70.8357 63.3905C69.538 64.667 66.8893 67.2624 64.9321 69.1558L61.3899 72.6023L60.9538 72.1342C60.7198 71.8683 59.571 70.6663 58.4009 69.443L56.2841 67.2412H41.722H27.1492L27.33 67.5816C27.4257 67.773 27.8512 68.273 28.2767 68.6878C28.8405 69.2516 29.2766 69.5601 29.9361 69.8898C31.6912 70.7514 30.7445 70.6876 43.4345 70.7514L54.763 70.8046L57.4117 73.517C58.8796 75.0062 60.2305 76.3465 60.4113 76.4848C60.7836 76.7507 61.5389 76.889 61.9963 76.772C62.3047 76.6975 63.2089 75.8466 70.3996 68.8367C73.4843 65.8264 75.4522 63.8373 75.5905 63.5714C76.0372 62.7204 75.8245 61.5716 75.1331 61.061C74.7608 60.7845 73.9949 60.71 73.5481 60.9121Z" fill="#2BA9EF"/>
<path id="Vector_5" d="M32.7124 75.1127L31.2976 75.1659L31.6487 75.6978C32.2018 76.5275 33.0421 77.2827 33.9569 77.7614C35.3397 78.4741 35.6163 78.5166 40.137 78.5166C44.0728 78.5166 44.1366 78.506 44.5408 78.2719C45.3492 77.8146 45.5939 76.7615 45.0833 75.9105C44.5834 75.0489 44.6897 75.0595 39.0733 75.0595C36.3502 75.0489 33.4889 75.0808 32.7124 75.1127Z" fill="#2BA9EF"/>
</g>
</g>
</svg>
